<svg width="184" height="184" viewBox="0 0 184 184" fill="none" xmlns="http://www.w3.org/2000/svg">
<path d="M154 0H30C13.4315 0 0 13.4315 0 30V154C0 170.569 13.4315 184 30 184H154C170.569 184 184 170.569 184 154V30C184 13.4315 170.569 0 154 0Z" fill="white"/>
<path d="M115.563 101.976C115.535 102.431 115.506 102.887 115.506 103.371C115.506 104.054 115.535 104.737 115.62 105.363V103.371C115.62 102.915 115.592 102.46 115.563 101.976Z" fill="#A92121"/>
<path d="M97.9732 97.0236H74.8618C76.5411 91.3312 81.6643 88.2003 86.7021 88.2003C91.8254 88.2003 96.294 90.9896 97.9732 97.0236Z" fill="#1E1F23"/>
<path d="M142.773 51V79.8039C138.419 75.9045 132.612 73.656 125.354 73.656C118.21 73.656 111.607 76.4453 106.683 81.3124C111.806 86.2079 115.136 93.2381 115.592 101.948C116.189 94.1204 121.654 88.8265 129.054 88.8265C136.312 88.8265 142.802 94.7466 142.802 103.342C142.802 112.052 136.341 117.858 129.054 117.858C121.853 117.858 116.446 112.934 115.649 105.335V107.896H98.2866C98.4859 109.462 98.7705 110.942 99.1689 112.365L114.396 115.467C112.66 119.737 110.212 123.209 107.224 125.913C112.091 130.438 118.466 133 125.354 133C132.612 133 138.419 130.751 142.773 126.852V131.321H160.619V51H142.773Z" fill="#1E1F23"/>
<path d="M25.11 56.5786V72.1191H61.7411L24 119.566V131.406H76.3992C68.8851 128.816 62.7372 123.351 59.4925 115.894C57.8417 112.678 57.1586 106.9 57.1586 106.9C57.0448 105.762 56.9594 104.595 56.9594 103.371C56.9594 87.2041 68.202 75.7338 82.6324 73.9122L85.1656 70.639V56.5502H25.11V56.5786Z" fill="#1E1F23"/>
</svg>
