<svg width="55" height="64" viewBox="0 0 55 64" fill="none" xmlns="http://www.w3.org/2000/svg">
<path d="M34.5211 35.9821C34.5125 36.1402 34.5039 36.2983 34.5039 36.4663C34.5039 36.7035 34.5125 36.9407 34.5383 37.1581V36.4663C34.5383 36.3082 34.5297 36.1501 34.5211 35.9821Z" fill="#A92121"/>
<path d="M29.2105 34.2626H22.2324C22.7395 32.2861 24.2863 31.199 25.8074 31.199C27.3543 31.199 28.7035 32.1675 29.2105 34.2626Z" fill="#ACACAD"/>
<path d="M42.7366 18.2824V28.2836C41.4218 26.9297 39.6686 26.1489 37.4772 26.1489C35.3202 26.1489 33.3264 27.1174 31.8397 28.8073C33.3866 30.5071 34.3921 32.9481 34.5296 35.9722C34.71 33.2545 36.36 31.4163 38.5944 31.4163C40.7858 31.4163 42.7452 33.4719 42.7452 36.4565C42.7452 39.4805 40.7944 41.4966 38.5944 41.4966C36.4202 41.4966 34.7874 39.7869 34.5468 37.1482V38.0377H29.3046C29.3647 38.5812 29.4507 39.0951 29.571 39.5892L34.1686 40.6664C33.6444 42.1488 32.9053 43.3545 32.003 44.2933C33.4725 45.8647 35.3975 46.7541 37.4772 46.7541C39.6686 46.7541 41.4218 45.9734 42.7366 44.6194V46.171H48.1249V18.2824H42.7366Z" fill="#ACACAD"/>
<path d="M7.21016 20.2195V25.6154H18.2703L6.875 42.0896V46.2007H22.6961C20.4273 45.3014 18.5711 43.404 17.5914 40.8147C17.093 39.698 16.8867 37.6919 16.8867 37.6919C16.8523 37.2966 16.8266 36.8914 16.8266 36.4664C16.8266 30.8531 20.2211 26.8704 24.5781 26.238L25.343 25.1015V20.2096H7.21016V20.2195Z" fill="#ACACAD"/>
</svg>
